<?xml version="1.0" standalone="no"?>
<!DOCTYPE svg PUBLIC "-//W3C//DTD SVG 20010904//EN"
 "http://www.w3.org/TR/2001/REC-SVG-20010904/DTD/svg10.dtd">
<svg version="1.0" xmlns="http://www.w3.org/2000/svg"
 width="500.000000pt" height="261.000000pt" viewBox="0 0 500.000000 261.000000"
 preserveAspectRatio="xMidYMid meet">

<g transform="translate(0.000000,261.000000) scale(0.100000,-0.100000)"
fill="#000000" stroke="none">
<path d="M3928 2573 c-27 -8 -48 -18 -48 -23 0 -5 -6 -7 -12 -5 -7 3 -51 -11
-97 -30 -47 -18 -88 -32 -93 -29 -4 3 -8 1 -8 -5 0 -15 -52 -22 -88 -12 -24 7
-40 7 -54 -2 -17 -10 -23 -8 -47 21 -19 22 -33 30 -44 26 -9 -3 -24 1 -32 10
-19 18 -41 21 -50 6 -3 -5 -1 -10 5 -10 6 0 9 -4 6 -9 -4 -5 0 -12 6 -15 7 -3
-8 -3 -33 0 -32 4 -55 1 -75 -10 l-29 -15 50 -1 c28 0 57 -5 65 -10 10 -6 11
-10 3 -10 -7 0 -13 -4 -13 -10 0 -5 19 -10 43 -10 59 0 67 -9 70 -70 2 -45 -1
-56 -18 -65 -11 -5 -31 -18 -45 -27 -42 -27 -67 -30 -89 -12 -11 10 -44 28
-73 40 -87 38 -219 28 -233 -17 -5 -16 -16 -19 -64 -19 -40 0 -63 5 -71 15
-16 19 -29 19 -71 -2 l-34 -18 73 -5 c51 -3 77 -10 85 -21 19 -24 76 -49 132
-55 l51 -6 0 36 c0 47 25 65 90 66 48 0 53 -3 93 -46 39 -43 41 -49 31 -75
-15 -35 -44 -63 -35 -33 4 12 -2 9 -17 -10 -60 -76 -73 -87 -113 -92 -22 -2
-49 -7 -60 -11 -69 -22 -197 14 -272 76 -20 17 -40 28 -45 25 -4 -3 -8 -1 -8
5 0 11 -60 47 -72 43 -5 -1 -8 2 -8 8 0 12 -69 45 -77 37 -3 -4 -13 -2 -22 2
-9 5 -37 12 -64 15 -26 4 -58 11 -71 16 -13 5 -32 7 -42 5 -11 -2 -23 -4 -27
-4 -5 -1 -7 -13 -5 -28 3 -24 -4 -31 -75 -68 -43 -23 -83 -47 -89 -53 -26 -26
3 -20 69 13 39 19 77 33 84 30 8 -3 29 -32 47 -63 32 -57 167 -204 196 -215 9
-4 16 -15 16 -25 0 -22 32 -37 97 -47 29 -5 47 -14 58 -31 9 -14 20 -22 26
-19 5 4 9 3 8 -2 -1 -4 -1 -19 1 -33 1 -22 2 -23 9 -5 5 13 10 -2 14 -50 4
-38 12 -72 18 -76 13 -8 18 -88 6 -92 -4 -1 -9 -16 -11 -34 -4 -31 -39 -77
-50 -65 -3 3 -6 0 -6 -7 0 -7 -4 -10 -9 -7 -11 7 -73 -40 -101 -76 -12 -16
-31 -28 -44 -28 -12 0 -26 -3 -30 -8 -4 -4 -11 -7 -14 -8 -47 -4 -119 -18
-128 -25 -11 -9 -159 -22 -238 -21 -34 0 -52 5 -58 16 -5 9 -18 16 -29 16 -10
0 -38 19 -62 43 -23 24 -50 46 -61 50 -17 7 -17 8 -1 33 9 14 15 34 12 45 -4
13 8 29 39 54 24 20 44 42 44 48 0 7 12 30 27 52 27 40 44 106 47 182 0 23 4
45 9 49 10 11 9 46 -2 39 -11 -6 -7 70 4 98 4 9 4 29 1 43 -5 20 -10 23 -20
15 -11 -9 -15 -3 -20 26 -9 55 -7 95 3 89 19 -12 35 28 36 95 2 72 -8 88 -26
42 -21 -59 -21 -59 -26 -45 -3 8 0 19 6 25 6 6 11 25 11 42 0 17 5 36 11 42
21 21 -2 64 -47 86 -24 11 -46 29 -50 39 -6 21 -17 22 -45 8 -16 -9 -18 -19
-14 -65 4 -53 -9 -85 -36 -85 -5 0 -9 -9 -9 -21 0 -27 -91 -178 -108 -179 -7
0 -10 5 -7 10 3 6 -6 15 -21 20 -15 6 -24 13 -21 17 4 3 1 15 -4 26 -11 19
-12 18 -31 -12 -11 -17 -28 -31 -37 -31 -9 0 -27 -7 -39 -16 -22 -15 -22 -15
-22 40 0 48 -6 88 -26 184 -2 12 -11 22 -20 22 -8 0 -17 7 -20 15 -4 8 -10 13
-14 10 -11 -7 -1 57 11 70 17 17 10 57 -11 62 -16 4 -20 14 -20 44 0 43 -13
52 -25 17 -12 -34 -12 -52 -2 -65 15 -21 -1 -46 -26 -41 -37 7 -67 -40 -67
-105 0 -43 -11 -59 -28 -41 -7 7 -12 15 -11 16 5 6 -52 85 -78 109 -42 39 -50
41 -81 25 -39 -20 -172 -46 -205 -39 -24 5 -35 -2 -78 -48 -27 -30 -54 -53
-60 -51 -6 1 -22 -7 -36 -18 -17 -13 -41 -20 -68 -20 -39 0 -44 -3 -72 -48
-21 -34 -47 -58 -85 -79 -62 -35 -98 -74 -133 -143 -13 -26 -37 -58 -52 -72
-15 -13 -51 -69 -80 -123 -54 -104 -51 -95 -89 -365 -3 -19 4 -77 15 -127 12
-51 21 -112 21 -136 0 -46 57 -232 92 -301 57 -112 191 -249 257 -262 7 -1 18
-7 24 -13 6 -6 18 -11 25 -11 8 0 0 10 -18 23 -32 21 -60 77 -38 77 17 0 52
-22 88 -55 57 -53 212 -167 246 -181 18 -8 36 -19 40 -25 6 -10 106 -59 121
-59 3 0 0 7 -7 15 -7 8 -9 15 -4 15 5 0 -12 14 -38 30 -27 17 -54 44 -63 62
-8 18 -22 44 -30 58 -8 14 -17 37 -20 52 -3 15 -11 33 -18 40 -23 23 -37 55
-37 85 0 22 2 25 10 13 8 -13 10 -12 10 3 0 23 30 22 80 -4 23 -12 44 -18 48
-15 3 4 1 10 -6 15 -7 4 -12 32 -13 66 -2 117 0 124 43 166 22 21 43 37 47 34
4 -2 37 20 73 50 37 30 70 55 75 55 5 0 20 11 33 25 l23 24 58 -52 c87 -77 84
-94 -31 -140 -72 -30 -94 -35 -114 -27 -21 8 -29 5 -45 -11 -11 -12 -25 -18
-31 -14 -14 9 -50 -23 -50 -44 0 -9 8 -28 17 -41 10 -14 16 -35 15 -46 -2 -12
2 -25 7 -29 6 -3 11 -15 11 -25 0 -10 8 -21 19 -25 10 -3 18 -13 17 -21 -1
-18 16 -30 57 -39 18 -4 27 -12 27 -26 0 -23 6 -25 81 -34 50 -5 56 -8 52 -26
-3 -11 2 -28 13 -40 11 -13 17 -32 16 -50 -3 -23 1 -31 22 -39 31 -11 34 -30
6 -30 -19 0 -22 -5 -24 -40 -1 -10 -17 -17 -52 -21 -53 -7 -98 -30 -108 -55
-7 -19 32 -34 92 -34 90 0 356 -41 404 -62 73 -32 198 -13 198 31 0 10 -9 26
-20 36 -15 14 -19 26 -15 46 5 21 2 30 -14 38 -23 13 -18 38 11 59 15 11 16
17 7 28 -8 10 -8 14 0 14 6 0 11 5 11 11 0 5 -5 7 -12 3 -7 -4 -2 6 10 23 24
33 28 76 12 118 -8 21 -7 27 8 32 43 16 45 78 2 116 -16 15 -30 36 -30 46 0
11 -5 32 -11 48 -7 15 -13 42 -14 58 -2 17 -10 54 -18 83 -8 28 -13 52 -10 52
14 0 103 -81 162 -148 36 -40 41 -42 93 -42 50 0 117 -22 118 -38 1 -4 5 -26
9 -49 6 -29 5 -41 -3 -40 -6 1 -10 -4 -8 -10 1 -7 -4 -13 -11 -13 -7 0 -30
-14 -50 -31 -31 -25 -37 -37 -33 -55 4 -15 0 -28 -10 -36 -22 -19 -45 -41 -77
-76 -15 -17 -44 -36 -65 -42 -74 -24 -60 -32 49 -28 95 3 109 6 140 29 26 20
55 29 124 38 196 27 268 32 298 21 44 -15 48 -14 106 30 29 22 57 40 62 40 6
0 29 9 51 20 63 30 155 47 178 32 13 -8 53 -10 132 -6 110 6 428 -9 478 -22
19 -4 16 -1 -10 13 -19 11 -75 25 -125 32 -159 20 -275 30 -291 24 -17 -6 -44
14 -44 33 0 8 11 16 25 20 16 4 25 13 25 26 0 16 -4 18 -22 12 -13 -4 -36 -8
-53 -9 -16 -1 -39 -6 -50 -10 -17 -8 -16 -4 7 26 34 42 93 145 103 179 11 37
82 154 108 179 17 15 45 24 105 31 97 13 118 20 158 53 l30 26 19 -36 c22 -40
167 -173 217 -199 68 -35 270 -94 324 -94 23 0 16 36 -13 71 -23 27 -27 42
-29 101 -1 43 -7 75 -16 86 -8 9 -15 30 -16 46 -3 37 -8 42 -27 26 -12 -10
-16 -8 -25 15 -5 14 -10 29 -10 32 0 15 -64 105 -68 94 -2 -6 -9 -11 -16 -11
-9 0 -12 -17 -9 -60 3 -54 1 -60 -16 -60 -11 0 -21 -5 -23 -12 -5 -13 -59 66
-106 153 -27 50 -30 63 -24 105 4 26 12 49 19 51 6 2 44 -28 84 -66 51 -49 76
-67 81 -58 6 9 8 8 8 -2 0 -8 2 -12 5 -9 12 12 -11 40 -68 83 -70 52 -53 63
29 18 38 -21 73 -29 161 -38 108 -12 116 -14 257 -83 80 -39 146 -69 146 -66
0 3 -11 22 -25 42 -14 20 -25 40 -25 43 0 7 -61 110 -77 132 -6 7 -18 32 -27
57 -22 56 -56 96 -68 78 -6 -10 -8 -10 -8 -1 0 7 -7 10 -15 6 -10 -3 -15 -1
-13 7 2 6 -6 17 -16 23 -23 14 -25 15 -89 64 -37 28 -45 39 -36 49 8 10 8 14
0 14 -6 0 -11 6 -11 13 0 8 -28 40 -61 73 -59 55 -62 57 -70 36 -10 -27 -19
-27 -67 -3 -45 23 -154 53 -146 40 3 -5 9 -9 15 -9 28 0 87 -36 96 -59 8 -21
22 -30 74 -44 35 -10 75 -24 89 -30 25 -11 34 -14 58 -16 6 0 12 -5 12 -11 0
-5 -7 -7 -15 -4 -8 4 -15 1 -15 -5 0 -6 5 -11 11 -11 13 0 159 -139 159 -151
0 -12 -31 1 -69 30 -32 24 -33 25 -27 4 12 -39 -14 -35 -119 16 -83 41 -111
60 -141 98 -21 27 -41 52 -46 57 -8 10 -95 27 -135 26 -13 0 -23 5 -23 10 0 6
-9 10 -20 10 -12 0 -34 7 -50 15 -17 9 -30 12 -30 8 0 -5 -14 14 -31 40 l-30
49 30 47 c17 26 31 54 31 62 0 12 2 12 9 0 7 -11 11 -10 19 6 6 11 58 67 115
124 82 83 111 120 142 182 21 42 41 77 44 77 7 0 35 60 30 64 -2 1 -25 -4 -51
-11z"/>
<path d="M3143 2463 c9 -2 25 -2 35 0 9 3 1 5 -18 5 -19 0 -27 -2 -17 -5z"/>
<path d="M2833 2363 c9 -2 25 -2 35 0 9 3 1 5 -18 5 -19 0 -27 -2 -17 -5z"/>
<path d="M2685 2245 c-5 -2 -30 -9 -54 -15 -23 -6 -41 -14 -38 -16 7 -8 127
19 127 28 0 8 -17 9 -35 3z"/>
<path d="M3620 2080 c0 -5 19 -10 43 -10 31 0 38 3 27 10 -20 13 -70 13 -70 0z"/>
<path d="M3940 2006 c0 -2 7 -7 16 -10 8 -3 12 -2 9 4 -6 10 -25 14 -25 6z"/>
<path d="M4170 1810 c0 -5 5 -10 11 -10 5 0 7 5 4 10 -3 6 -8 10 -11 10 -2 0
-4 -4 -4 -10z"/>
<path d="M431 695 c-1 -50 48 -156 84 -179 14 -9 23 -21 20 -27 -11 -17 34
-96 70 -123 35 -27 60 -33 70 -16 8 13 61 13 88 -1 12 -7 41 -27 64 -45 32
-26 51 -34 83 -34 50 0 106 -22 142 -57 24 -22 40 -27 115 -34 123 -11 145
-11 138 1 -3 6 -13 10 -21 10 -8 0 -35 10 -59 21 -25 12 -48 19 -51 16 -3 -3
-25 3 -49 13 -24 10 -46 16 -49 13 -3 -4 -6 1 -6 9 0 8 -20 32 -44 53 -25 21
-50 51 -57 68 -7 16 -23 41 -36 55 -13 14 -23 28 -23 32 0 8 -105 61 -117 59
-19 -3 -47 3 -35 8 15 6 6 23 -14 23 -8 0 -14 -6 -14 -14 0 -17 -27 -46 -41
-46 -6 0 -8 4 -5 9 4 5 -2 7 -13 4 -10 -2 -38 5 -62 17 -46 24 -149 116 -149
134 -1 6 -7 25 -15 41 l-13 30 -1 -40z"/>
<path d="M3790 591 c47 -10 81 -28 106 -58 20 -23 25 -24 55 -14 33 11 65 54
53 72 -3 5 -60 8 -127 8 -76 -1 -109 -4 -87 -8z"/>
<path d="M3968 463 c-29 -10 -51 -25 -59 -40 -16 -30 -80 -64 -120 -65 -16 -1
-29 -4 -29 -8 0 -4 -13 -5 -28 -2 -17 2 -35 -2 -43 -11 -9 -9 -27 -12 -48 -9
-18 2 -44 -1 -57 -8 -20 -11 -28 -11 -49 0 l-26 14 28 23 28 22 -70 -1 c-58
-1 -73 -5 -93 -25 -13 -13 -20 -28 -17 -33 3 -6 1 -10 -4 -10 -6 0 -10 -6 -9
-12 2 -9 -9 -13 -32 -13 -28 0 -34 4 -32 18 2 10 -2 16 -10 15 -8 -2 -12 6
-10 25 2 15 -1 27 -7 27 -6 0 -20 10 -32 23 -16 16 -23 19 -26 9 -9 -23 -63
-67 -91 -73 -15 -4 -45 -7 -67 -8 -29 -1 -56 -12 -95 -38 -45 -31 -65 -38
-110 -39 -30 -1 -60 -2 -66 -3 -6 0 -14 -14 -17 -31 -4 -19 -17 -35 -38 -45
-33 -18 -160 -34 -279 -36 -41 0 -86 -5 -100 -10 -15 -5 144 -6 385 -3 396 5
590 16 830 49 137 18 390 77 423 98 18 12 15 44 -5 56 -15 8 -12 15 30 60 48
51 59 84 31 95 -21 8 -31 7 -86 -11z"/>
</g>
</svg>
